<?xml version="1.0" encoding="utf-8"?>
<!-- Generator: Adobe Illustrator 25.3.1, SVG Export Plug-In . SVG Version: 6.00 Build 0)  -->
<svg version="1.1" id="Calque_1" xmlns="http://www.w3.org/2000/svg" xmlns:xlink="http://www.w3.org/1999/xlink" x="0px" y="0px"
	 viewBox="0 0 201 85" style="enable-background:new 0 0 201 85;" xml:space="preserve">
<path d="M102.1,68.3c-0.8,0-1.6,0.2-2.2,0.6c-0.5,0.4-0.8,1-0.8,1.7c0,0.7,0.4,1.4,1,1.8c0.9,0.6,1.9,1.1,2.9,1.4
	c0.8,0.3,1.7,0.7,2.4,1.1c0.7,0.4,1.2,1,1.6,1.7c0.5,0.8,0.7,1.8,0.6,2.8c0,1-0.2,1.9-0.8,2.7c-0.5,0.9-1.3,1.6-2.2,2
	c-1.1,0.5-2.2,0.8-3.4,0.7c-1.1,0-2.3-0.2-3.4-0.5c-1.1-0.3-2.1-0.8-3-1.5l1.4-2.4c0.7,0.5,1.5,0.9,2.3,1.2c0.8,0.3,1.6,0.5,2.4,0.5
	c0.9,0,1.7-0.2,2.4-0.7c0.7-0.4,1-1.2,1-2c0-0.7-0.3-1.4-0.9-1.8c-0.7-0.6-1.6-1-2.4-1.3c-0.9-0.3-1.8-0.7-2.7-1.2
	c-0.7-0.4-1.3-1-1.8-1.6c-0.5-0.8-0.8-1.7-0.8-2.6c-0.1-1.4,0.5-2.8,1.6-3.7c1.2-1,2.6-1.5,4.1-1.5c1.1,0,2.2,0.1,3.3,0.4
	c0.9,0.3,1.8,0.7,2.6,1.2l-1.1,2.3C105,68.9,103.6,68.4,102.1,68.3z"/>
<path d="M124.6,65.8v2.9h-4.8v16h-3v-16H112v-2.9H124.6z"/>
<path d="M133.5,79.9c0.8,1.3,2.2,2,3.7,2c0.8,0,1.5-0.2,2.2-0.5c0.6-0.3,1.2-0.9,1.6-1.5c0.4-0.6,0.6-1.3,0.6-2V65.8h3V78
	c0.1,2.6-1.4,4.9-3.6,6.1c-1.1,0.6-2.4,0.9-3.7,0.9c-1.3,0-2.6-0.3-3.7-0.9c-1.1-0.6-2-1.4-2.6-2.5c-0.7-1.1-1-2.3-1-3.6V65.8h3
	v12.1C132.9,78.6,133.2,79.3,133.5,79.9z"/>
<path d="M151.3,65.8h5.4c2.1-0.1,4.1,0.4,5.9,1.4c1.5,0.8,2.6,2.1,3.4,3.6c0.7,1.5,1.1,3.1,1.1,4.7c0,1.7-0.4,3.4-1.3,4.9
	c-0.8,1.4-2,2.5-3.4,3.2c-1.5,0.8-3.1,1.1-4.7,1.1h-6.3L151.3,65.8z M157,81.8c1.2,0,2.5-0.2,3.6-0.8c1-0.5,1.9-1.3,2.4-2.2
	c0.6-1.1,0.9-2.3,0.9-3.5c0-1.3-0.3-2.6-1-3.7c-0.6-1-1.4-1.7-2.4-2.2c-0.9-0.5-2-0.7-3-0.7h-3.2v13.1H157z"/>
<path d="M175.9,65.8v18.9h-3V65.8H175.9z"/>
<path d="M183,70.4c0.9-1.5,2.1-2.7,3.5-3.6c3-1.8,6.7-1.8,9.7,0c1.5,0.9,2.7,2.1,3.5,3.6c1.8,3,1.8,6.7,0,9.6
	c-0.9,1.5-2.1,2.7-3.5,3.5c-1.5,0.9-3.1,1.3-4.8,1.3c-3.4,0-6.6-1.8-8.4-4.8C181.2,77.1,181.2,73.4,183,70.4L183,70.4z M185.7,78.6
	c0.6,1,1.4,1.8,2.4,2.4c1,0.6,2.2,0.9,3.3,0.9c1.2,0,2.3-0.3,3.3-0.9c1-0.6,1.8-1.4,2.4-2.4c1.2-2.1,1.2-4.7,0-6.8
	c-0.6-1-1.4-1.9-2.4-2.5c-2-1.2-4.6-1.2-6.6,0c-1,0.6-1.8,1.5-2.4,2.5c-0.6,1-0.9,2.2-0.9,3.4C184.8,76.4,185.1,77.6,185.7,78.6
	L185.7,78.6z"/>
<path d="M122.3,53.4V48c-0.5,0.9-1.1,1.6-1.8,2.3c-1.1,1.1-2.4,2.1-3.9,2.7c-1.7,0.8-3.7,1.3-5.6,1.2c-3,0.1-5.9-0.7-8.4-2.3
	c-2.4-1.6-4.3-3.7-5.6-6.3c-2.7-5.5-2.7-12,0-17.5c1.3-2.6,3.2-4.7,5.6-6.3c2.5-1.6,5.4-2.4,8.4-2.4c1.8,0,3.7,0.3,5.4,1
	c1.4,0.6,2.6,1.3,3.8,2.3c0.8,0.7,1.5,1.5,2,2.5v-4.8h12.1v32.8L122.3,53.4z M106.9,37c0,1.4,0.3,2.8,1,4c0.7,1.2,1.7,2.2,2.9,2.8
	c1.2,0.7,2.5,1,3.9,1c1.4,0,2.7-0.3,3.9-1c1.1-0.7,2-1.6,2.7-2.8c1.3-2.5,1.3-5.5,0-8c-1.3-2.4-3.8-3.9-6.5-3.8
	c-1.4,0-2.7,0.3-3.9,1c-1.2,0.7-2.1,1.6-2.8,2.8C107.3,34.2,106.9,35.6,106.9,37L106.9,37z"/>
<path d="M149.8,13.8c-3.8,0-6.9-3.1-6.9-6.8c0,0,0,0,0,0c0-1.8,0.7-3.6,2-4.9c2.2-2.2,5.6-2.7,8.3-1.1c1,0.6,1.9,1.5,2.5,2.5
	c1.6,2.7,1.2,6.1-1.1,8.3C153.4,13.1,151.6,13.8,149.8,13.8z M143.5,53.4V20.5h12.2v32.8L143.5,53.4z"/>
<path d="M0,0v85h85V0L0,0z M60.4,37.2l-6.8,6.9l-6.9-6.9H60.4z M35.2,70H28l7.3-7.3V70z M35.2,48.6L23.1,60.9V15h12.2V48.6z
	 M47.9,70l-9.8-10.2l6.8-6.9l17,17.1L47.9,70z"/>
</svg>
