<svg id="search" xmlns="http://www.w3.org/2000/svg" width="24" height="24" viewBox="0 0 24 24">
  <g id="Groupe_2525" data-name="Groupe 2525" transform="translate(0 0)">
    <path id="Tracé_8" data-name="Tracé 8" d="M-75.1,33.389h24v24h-24Z" transform="translate(75.098 -33.389)" fill="none"/>
    <path id="Tracé_2151" data-name="Tracé 2151" d="M-63.822,51.736a7.054,7.054,0,0,1-5-2.069,7.028,7.028,0,0,1-2.072-5,7.031,7.031,0,0,1,2.072-5,7.03,7.03,0,0,1,5-2.073,7.03,7.03,0,0,1,5,2.073h0a7.086,7.086,0,0,1,0,10.007A7.057,7.057,0,0,1-63.822,51.736Zm0-12.547a5.439,5.439,0,0,0-3.872,1.6,5.442,5.442,0,0,0-1.6,3.872,5.44,5.44,0,0,0,1.6,3.872,5.484,5.484,0,0,0,7.744,0,5.482,5.482,0,0,0,0-7.745A5.439,5.439,0,0,0-63.822,39.189Z" transform="translate(75.098 -33.389)" fill="#242424"/>
    <path id="Tracé_2152" data-name="Tracé 2152" d="M-56.1,53.189a.8.8,0,0,1-.566-.235l-3.29-3.29a.8.8,0,0,1,0-1.131.8.8,0,0,1,1.132,0l3.29,3.29a.8.8,0,0,1,0,1.131A.8.8,0,0,1-56.1,53.189Z" transform="translate(75.098 -33.389)" fill="#242424"/>
  </g>
  <g id="Groupe_2526" data-name="Groupe 2526">
    <path id="Tracé_8-2" data-name="Tracé 8" d="M-75.1,33.389h24v24h-24Z" transform="translate(75.098 -33.389)" fill="none"/>
    <path id="Tracé_2151-2" data-name="Tracé 2151" d="M-63.822,51.736a7.054,7.054,0,0,1-5-2.069,7.028,7.028,0,0,1-2.072-5,7.031,7.031,0,0,1,2.072-5,7.03,7.03,0,0,1,5-2.073,7.03,7.03,0,0,1,5,2.073h0a7.086,7.086,0,0,1,0,10.007A7.057,7.057,0,0,1-63.822,51.736Zm0-12.547a5.439,5.439,0,0,0-3.872,1.6,5.442,5.442,0,0,0-1.6,3.872,5.44,5.44,0,0,0,1.6,3.872,5.484,5.484,0,0,0,7.744,0,5.482,5.482,0,0,0,0-7.745A5.439,5.439,0,0,0-63.822,39.189Z" transform="translate(75.098 -33.389)" fill="#242424"/>
    <path id="Tracé_2152-2" data-name="Tracé 2152" d="M-56.1,53.189a.8.8,0,0,1-.566-.235l-3.29-3.29a.8.8,0,0,1,0-1.131.8.8,0,0,1,1.132,0l3.29,3.29a.8.8,0,0,1,0,1.131A.8.8,0,0,1-56.1,53.189Z" transform="translate(75.098 -33.389)" fill="#242424"/>
  </g>
</svg>
